<svg width="142" height="18" viewBox="0 0 142 18" fill="none" xmlns="http://www.w3.org/2000/svg">
<g clip-path="url(#clip0_1583_6533)">
<path d="M45.332 0.0353694C47.4117 0.0353694 48.9134 0.688415 50.3134 1.93239C50.3557 1.96654 50.3902 2.00926 50.4145 2.05769C50.4388 2.10613 50.4524 2.15915 50.4543 2.2132C50.4563 2.26726 50.4465 2.3211 50.4257 2.37111C50.4049 2.42112 50.3736 2.46614 50.3337 2.50317L49.0778 3.78743C49.047 3.82467 49.0082 3.85468 48.9642 3.87529C48.9202 3.89589 48.8722 3.90657 48.8236 3.90657C48.7749 3.90657 48.7269 3.89589 48.6829 3.87529C48.639 3.85468 48.6002 3.82467 48.5693 3.78743C47.693 3.02226 46.568 2.595 45.3998 2.58375C42.7642 2.58375 40.8083 4.76615 40.8083 7.33467C40.8083 9.9032 42.7846 12.0352 45.4202 12.0352C46.5747 12.0243 47.6889 11.6133 48.5693 10.8735C48.6389 10.8109 48.7296 10.7762 48.8236 10.7762C48.9176 10.7762 49.0082 10.8109 49.0778 10.8735L50.3541 12.1779C50.3893 12.2154 50.4167 12.2594 50.4347 12.3073C50.4527 12.3553 50.461 12.4063 50.4591 12.4574C50.4572 12.5086 50.4452 12.5588 50.4237 12.6054C50.4021 12.6519 50.3716 12.6938 50.3337 12.7286C48.9953 14.0157 47.1974 14.7266 45.332 14.7062C43.3667 14.7062 41.4819 13.9329 40.0923 12.5564C38.7026 11.18 37.9219 9.31315 37.9219 7.36657C37.9219 5.41999 38.7026 3.55314 40.0923 2.1767C41.4819 0.800255 43.3667 0.0269775 45.332 0.0269775V0.0353694Z" fill="#CC0020"/>
<path d="M52.9375 0.626355C52.9409 0.524735 52.9833 0.42822 53.056 0.35648C53.1288 0.28474 53.2264 0.243169 53.329 0.240234H55.2426C55.3452 0.243169 55.4428 0.28474 55.5156 0.35648C55.5883 0.42822 55.6307 0.524735 55.6341 0.626355V14.1237C55.6307 14.2253 55.5883 14.3218 55.5156 14.3936C55.4428 14.4653 55.3452 14.5069 55.2426 14.5098H53.329C53.2264 14.5069 53.1288 14.4653 53.056 14.3936C52.9833 14.3218 52.9409 14.2253 52.9375 14.1237V0.626355Z" fill="#CC0020"/>
<path d="M57.8092 0.769061C57.7782 0.712112 57.7632 0.647907 57.7659 0.583232C57.7687 0.518558 57.789 0.455821 57.8248 0.401645C57.8605 0.34747 57.9104 0.30387 57.9692 0.275461C58.0279 0.247052 58.0933 0.234886 58.1584 0.240249H60.2584C60.3324 0.239918 60.4049 0.260828 60.4672 0.300452C60.5294 0.340076 60.5788 0.39672 60.6092 0.463529L64.5601 9.23008H64.7042L68.6567 0.463529C68.6865 0.396592 68.7355 0.339774 68.7975 0.300093C68.8596 0.260412 68.932 0.239604 69.0058 0.240249H71.1058C71.171 0.234886 71.2364 0.247052 71.2951 0.275461C71.3538 0.30387 71.4037 0.34747 71.4395 0.401645C71.4752 0.455821 71.4956 0.518558 71.4983 0.583232C71.501 0.647907 71.4861 0.712112 71.455 0.769061L65.0753 14.4897C65.0464 14.5577 64.9975 14.6156 64.9349 14.6557C64.8723 14.6958 64.799 14.7164 64.7245 14.7146H64.5194C64.4449 14.7161 64.3717 14.6955 64.3092 14.6554C64.2466 14.6153 64.1977 14.5576 64.1686 14.4897L57.8092 0.769061Z" fill="#CC0020"/>
<path d="M73.668 0.626355C73.6714 0.524735 73.7138 0.42822 73.7865 0.35648C73.8593 0.28474 73.9569 0.243169 74.0595 0.240234H75.973C76.0755 0.243564 76.1729 0.285263 76.2456 0.356921C76.3182 0.428578 76.3608 0.524865 76.3646 0.626355V14.1237C76.3608 14.2252 76.3182 14.3215 76.2456 14.3931C76.1729 14.4648 76.0755 14.5065 75.973 14.5098H74.0595C73.9569 14.5069 73.8593 14.4653 73.7865 14.3936C73.7138 14.3218 73.6714 14.2253 73.668 14.1237V0.626355Z" fill="#CC0020"/>
<path d="M86.4024 0.0354914C88.482 0.0354914 89.9837 0.688537 91.3837 1.93251C91.4261 1.96666 91.4605 2.00938 91.4849 2.05782C91.5092 2.10625 91.5227 2.15927 91.5247 2.21333C91.5266 2.26738 91.5168 2.32122 91.496 2.37123C91.4752 2.42124 91.4439 2.46626 91.4041 2.50329L90.1481 3.78755C90.1173 3.8248 90.0785 3.8548 90.0345 3.87541C89.9906 3.89601 89.9425 3.90669 89.8939 3.90669C89.8452 3.90669 89.7972 3.89601 89.7533 3.87541C89.7093 3.8548 89.6705 3.8248 89.6396 3.78755C88.7633 3.02238 87.6383 2.59513 86.4702 2.58387C83.8346 2.58387 81.8803 4.76627 81.8803 7.3348C81.8803 9.90332 83.8549 12.0354 86.4905 12.0354C87.645 12.0245 88.7592 11.6134 89.6396 10.8736C89.7092 10.811 89.7999 10.7763 89.8939 10.7763C89.9879 10.7763 90.0785 10.811 90.1481 10.8736L91.4244 12.1781C91.4596 12.2155 91.487 12.2595 91.505 12.3074C91.523 12.3554 91.5313 12.4064 91.5294 12.4575C91.5275 12.5087 91.5155 12.559 91.494 12.6055C91.4725 12.652 91.4419 12.6939 91.4041 12.7287C90.0657 14.0159 88.2678 14.7267 86.4024 14.7063C84.4371 14.7063 82.5523 13.933 81.1626 12.5566C79.7729 11.1801 78.9922 9.31328 78.9922 7.36669C78.9922 5.42011 79.7729 3.55326 81.1626 2.17682C82.5523 0.800377 84.4371 0.0270996 86.4024 0.0270996V0.0354914Z" fill="#CC0020"/>
<path d="M94.1328 0.626359C94.1328 0.575512 94.143 0.525162 94.1626 0.478206C94.1823 0.43125 94.2112 0.38861 94.2476 0.352733C94.284 0.316857 94.3271 0.288454 94.3746 0.269148C94.4221 0.249843 94.473 0.240017 94.5243 0.240238H99.3616C101.892 0.240238 103.972 2.27827 103.972 4.74606C103.972 5.95551 103.49 7.11601 102.63 7.97498C101.77 8.83395 100.603 9.32185 99.382 9.33247H96.8091V14.1237C96.8057 14.2253 96.7633 14.3218 96.6905 14.3936C96.6178 14.4653 96.5202 14.5069 96.4176 14.5098H94.5243C94.473 14.51 94.4221 14.5002 94.3746 14.4809C94.3271 14.4616 94.284 14.4332 94.2476 14.3973C94.2112 14.3614 94.1823 14.3188 94.1626 14.2718C94.143 14.2249 94.1328 14.1745 94.1328 14.1237V0.626359ZM99.1955 6.83782C99.4757 6.83783 99.7531 6.78285 100.012 6.67605C100.27 6.56925 100.505 6.41275 100.702 6.21559C100.899 6.01844 101.055 5.78453 101.16 5.5274C101.266 5.27027 101.319 4.99501 101.316 4.71753C101.316 3.59611 100.35 2.73993 99.1955 2.73993H96.8091V6.84453L99.1955 6.83782Z" fill="#383938"/>
<path d="M106.355 0.626359C106.355 0.575512 106.366 0.525162 106.385 0.478206C106.405 0.43125 106.434 0.38861 106.47 0.352733C106.507 0.316857 106.55 0.288454 106.597 0.269148C106.645 0.249843 106.696 0.240017 106.747 0.240238H108.64C108.743 0.243568 108.84 0.285267 108.913 0.356924C108.985 0.428582 109.028 0.524869 109.032 0.626359V12.0638H114.286C114.337 12.0636 114.388 12.0735 114.436 12.0929C114.484 12.1123 114.527 12.1409 114.563 12.1769C114.6 12.213 114.629 12.2558 114.648 12.303C114.668 12.3501 114.678 12.4006 114.678 12.4516V14.1304C114.678 14.1813 114.667 14.2316 114.648 14.2786C114.628 14.3255 114.599 14.3682 114.563 14.404C114.526 14.4399 114.483 14.4683 114.436 14.4876C114.388 14.5069 114.337 14.5167 114.286 14.5165H106.747C106.696 14.5167 106.645 14.5069 106.597 14.4876C106.55 14.4683 106.507 14.4399 106.47 14.404C106.434 14.3682 106.405 14.3255 106.385 14.2786C106.366 14.2316 106.355 14.1813 106.355 14.1304V0.626359Z" fill="#383938"/>
<path d="M116.336 0.626359C116.339 0.524738 116.382 0.428224 116.455 0.356484C116.527 0.284744 116.625 0.243172 116.727 0.240238H118.683C118.787 0.240238 118.886 0.280922 118.959 0.353333C119.032 0.425744 119.073 0.523954 119.073 0.626359V8.96482C119.073 10.6973 120.26 12.0638 122.058 12.0638C123.856 12.0638 125.063 10.6973 125.063 8.98496V0.626359C125.063 0.575512 125.073 0.525162 125.093 0.478206C125.113 0.43125 125.141 0.38861 125.178 0.352733C125.214 0.316857 125.257 0.288454 125.305 0.269148C125.352 0.249843 125.403 0.240017 125.455 0.240238H127.409C127.511 0.243172 127.609 0.284744 127.682 0.356484C127.755 0.428224 127.797 0.524738 127.8 0.626359V9.10752C127.8 12.2065 125.311 14.7146 122.058 14.7146C121.309 14.7246 120.565 14.5869 119.87 14.3094C119.176 14.0319 118.544 13.6203 118.011 13.0984C117.478 12.5765 117.056 11.9549 116.768 11.2697C116.481 10.5846 116.334 9.84954 116.336 9.10752V0.626359Z" fill="#383938"/>
<path d="M130.272 12.512L131.012 11.2479C131.046 11.19 131.092 11.1398 131.147 11.1007C131.201 11.0615 131.264 11.0343 131.33 11.0208C131.396 11.0074 131.464 11.0079 131.53 11.0225C131.596 11.037 131.658 11.0652 131.712 11.1052C131.816 11.1673 133.484 12.3693 134.821 12.3693C135.89 12.3693 136.685 11.676 136.685 10.7997C136.685 9.76053 135.801 9.04706 134.072 8.35372C132.136 7.57981 130.202 6.35598 130.202 3.9503C130.202 2.13555 131.558 0.0354004 134.833 0.0354004C136.314 0.0634708 137.751 0.540389 138.95 1.40192C139.052 1.47802 139.121 1.58934 139.144 1.71375C139.167 1.83816 139.142 1.96656 139.073 2.07343L138.29 3.23514C138.121 3.48024 137.818 3.64309 137.57 3.48025C137.401 3.37784 135.841 2.35882 134.709 2.35882C133.536 2.35882 132.897 3.13274 132.897 3.78578C132.897 4.74436 133.66 5.39572 135.326 6.06891C137.323 6.86297 139.628 8.0465 139.628 10.6755C139.628 12.7756 137.797 14.7129 134.894 14.7129C132.301 14.7129 130.779 13.5092 130.367 13.1231C130.182 12.9401 130.087 12.8377 130.272 12.512Z" fill="#383938"/>
<path d="M141.225 0.520508C141.072 0.520508 140.922 0.565599 140.794 0.650084C140.667 0.734569 140.567 0.854653 140.508 0.995147C140.45 1.13564 140.434 1.29024 140.464 1.43939C140.494 1.58853 140.568 1.72553 140.677 1.83306C140.785 1.94059 140.923 2.01382 141.074 2.04349C141.225 2.07316 141.381 2.05793 141.523 1.99974C141.664 1.94154 141.786 1.84299 141.871 1.71655C141.956 1.59011 142.002 1.44145 142.002 1.28938C142.002 1.08546 141.92 0.889901 141.774 0.745709C141.629 0.601516 141.431 0.520508 141.225 0.520508ZM141.225 1.88871C141.106 1.88871 140.989 1.85356 140.889 1.7877C140.79 1.72185 140.712 1.62825 140.666 1.51873C140.621 1.40922 140.609 1.28872 140.632 1.17246C140.655 1.0562 140.713 0.949419 140.798 0.865602C140.882 0.781785 140.99 0.724702 141.107 0.701577C141.225 0.678452 141.346 0.690321 141.457 0.735683C141.568 0.781044 141.662 0.857863 141.729 0.956421C141.795 1.05498 141.831 1.17085 141.831 1.28938C141.83 1.4482 141.766 1.60038 141.653 1.71268C141.539 1.82498 141.386 1.88826 141.225 1.88871Z" fill="#383938"/>
<path d="M141.479 1.19706C141.48 1.1721 141.475 1.14727 141.466 1.12405C141.457 1.10084 141.443 1.07973 141.425 1.062C141.407 1.04426 141.386 1.03028 141.363 1.02089C141.339 1.0115 141.314 1.00689 141.289 1.00736H141.05C141.042 1.00776 141.035 1.01107 141.029 1.01665C141.023 1.02224 141.02 1.02969 141.02 1.03757V1.5412C141.02 1.54892 141.023 1.55619 141.029 1.5615C141.035 1.56681 141.042 1.56976 141.05 1.56975H141.125C141.129 1.56997 141.132 1.56941 141.136 1.56808C141.14 1.56674 141.143 1.56468 141.146 1.562C141.149 1.55933 141.151 1.55611 141.153 1.55253C141.154 1.54896 141.155 1.5451 141.155 1.5412V1.37333H141.235L141.303 1.5412C141.305 1.54729 141.308 1.55263 141.314 1.55652C141.319 1.56041 141.325 1.56268 141.331 1.56303H141.414C141.419 1.56318 141.424 1.56208 141.429 1.55986C141.433 1.55764 141.437 1.55436 141.439 1.55033C141.442 1.5463 141.444 1.54166 141.444 1.53683C141.444 1.532 141.444 1.52715 141.442 1.52274L141.37 1.36326C141.403 1.3493 141.431 1.32606 141.45 1.29647C141.469 1.26688 141.479 1.23228 141.479 1.19706ZM141.272 1.26253H141.15V1.13662H141.272C141.28 1.1364 141.289 1.13784 141.297 1.14086C141.304 1.14388 141.312 1.14842 141.318 1.15421C141.324 1.16 141.328 1.16692 141.332 1.17457C141.335 1.18222 141.337 1.19044 141.337 1.19874C141.337 1.20718 141.335 1.21558 141.332 1.22342C141.329 1.23127 141.324 1.23839 141.318 1.24436C141.312 1.25033 141.305 1.25502 141.297 1.25815C141.289 1.26127 141.281 1.26276 141.272 1.26253Z" fill="#383938"/>
<path d="M12.4227 0.515488H6.92439C6.00592 0.501255 5.09378 0.66814 4.24106 1.00643C3.38834 1.34472 2.61208 1.84765 1.95749 2.48595C1.30289 3.12424 0.783046 3.88514 0.428205 4.72434C0.0733646 5.56354 -0.109375 6.46428 -0.109375 7.37411C-0.109375 8.28394 0.0733646 9.18468 0.428205 10.0239C0.783046 10.8631 1.30289 11.624 1.95749 12.2623C2.61208 12.9006 3.38834 13.4035 4.24106 13.7418C5.09378 14.0801 6.00592 14.247 6.92439 14.2327H12.4142C12.5876 14.2328 12.754 14.1651 12.8775 14.0444C13.0009 13.9238 13.0713 13.7598 13.0735 13.5881V9.6094C13.0713 9.44399 13.0058 9.28556 12.8905 9.16597C12.7751 9.04638 12.6182 8.97449 12.4515 8.96475H6.92439C6.7091 8.97168 6.49461 8.93566 6.29366 8.85884C6.09271 8.78202 5.9094 8.66597 5.75464 8.51758C5.59988 8.3692 5.47682 8.1915 5.39278 7.99506C5.30874 7.79863 5.26543 7.58746 5.26543 7.37411C5.26543 7.16076 5.30874 6.9496 5.39278 6.75316C5.47682 6.55673 5.59988 6.37903 5.75464 6.23064C5.9094 6.08225 6.09271 5.9662 6.29366 5.88938C6.49461 5.81257 6.7091 5.77655 6.92439 5.78348H12.4447C12.6125 5.7758 12.771 5.70498 12.8879 5.58549C13.0047 5.466 13.0711 5.30685 13.0735 5.1405V1.16014C13.0713 0.989841 13.0021 0.827133 12.8805 0.706707C12.7589 0.58628 12.5946 0.517663 12.4227 0.515488Z" fill="#CC0020"/>
<path d="M21.8789 0.515625H16.4382C16.2717 0.517882 16.1121 0.582492 15.9917 0.696474C15.8713 0.810456 15.7989 0.965363 15.7891 1.13006V5.16918C15.7988 5.33331 15.8708 5.48773 15.9905 5.60163C16.1102 5.71553 16.2689 5.78052 16.4348 5.78361H21.8789C22.3059 5.78361 22.7155 5.95164 23.0175 6.25073C23.3194 6.54982 23.4891 6.95547 23.4891 7.37845C23.4891 7.80142 23.3194 8.20707 23.0175 8.50616C22.7155 8.80525 22.3059 8.97328 21.8789 8.97328H16.4552C16.2871 8.97342 16.1255 9.03709 16.0033 9.15128C15.8811 9.26548 15.8075 9.42158 15.7975 9.58771V17.3571C15.8072 17.5201 15.8782 17.6736 15.9965 17.7873C16.1147 17.901 16.2717 17.9667 16.4365 17.9715H17.3586C17.4251 17.9756 17.4917 17.9644 17.5532 17.9388C17.6146 17.9132 17.6693 17.8738 17.7128 17.8238L21.1704 14.2396H21.8789C23.6966 14.2114 25.4303 13.4764 26.7057 12.1932C27.9811 10.9101 28.696 9.18162 28.696 7.38096C28.696 5.58031 27.9811 3.85186 26.7057 2.56868C25.4303 1.2855 23.6966 0.55051 21.8789 0.522342V0.515625Z" fill="#383938"/>
</g>
<defs>
<clipPath id="clip0_1583_6533">
<rect width="142" height="17.9293" fill="white" transform="translate(0 0.0354004)"/>
</clipPath>
</defs>
</svg>
